<?xml version="1.0" encoding="UTF-8"?>
<svg xmlns="http://www.w3.org/2000/svg" version="1.1" viewBox="0 0 595.1 295">
  <defs>
    <style>
      .cls-1 {
        fill: #0e0e0e;
      }
    </style>
  </defs>
  <!-- Generator: Adobe Illustrator 28.7.0, SVG Export Plug-In . SVG Version: 1.2.0 Build 136)  -->
  <g>
    <g id="Laag_1">
      <g>
        <rect class="cls-1" x="373" y="109" width="22.6" height="62.9"/>
        <path class="cls-1" d="M282.1,121.4c-1.7-2.2-3.6-4.1-5.8-5.8h0c-.6-.5-1.2-.9-1.9-1.3,0,0-.1,0-.2-.1-.6-.4-1.2-.8-1.9-1.1-.2-.1-.4-.3-.7-.4-.5-.3-1-.5-1.5-.7-.4-.2-.7-.4-1.1-.5-.4-.2-.8-.3-1.2-.4-.5-.2-1.1-.4-1.6-.6-.2,0-.5-.1-.7-.2-.7-.2-1.4-.4-2.1-.5,0,0-.1,0-.2,0-.7-.1-1.5-.3-2.2-.4h0c-1.3-.1-2.7-.2-4-.2h0s-3.8,0-3.8,0c-16,.5-18.5,10.7-18.5,10.7v-10.7h-19.8v76.9h19.8v-13.9h0v-10.7s2.6,10.6,19.4,10.7h2.2c8.3.2,16.7-2.8,23.1-9.2,11.3-11.3,12.2-29.1,2.7-41.5h0ZM259.5,152c0,0-.1,0-.2,0-.5,0-1,.2-1.5.2,0,0,0,0,0,0h0s-.6,0-.6,0h-22.3v-23.7h23s0,0,0,0c6.5,0,11.8,5.3,11.8,11.8s-4.3,10.8-10,11.6Z"/>
        <path class="cls-1" d="M360.3,121.4c-1.7-2.2-3.6-4.1-5.8-5.8h0c-.6-.5-1.2-.9-1.9-1.3,0,0-.1,0-.2-.1-.6-.4-1.2-.8-1.9-1.1-.2-.1-.4-.3-.7-.4-.5-.3-1-.5-1.5-.7-.4-.2-.7-.4-1.1-.5-.4-.2-.8-.3-1.2-.4-.5-.2-1.1-.4-1.6-.6-.2,0-.5-.1-.7-.2-.7-.2-1.4-.4-2.1-.5,0,0-.1,0-.2,0-.7-.1-1.5-.3-2.2-.4h0c-1.3-.1-2.7-.2-4-.2h0s-3.8,0-3.8,0c-16,.5-18.5,10.7-18.5,10.7v-10.7h-19.8v76.9h19.8v-13.9h0v-10.7s2.6,10.6,19.4,10.7h2.2c8.3.2,16.7-2.8,23.1-9.2,11.3-11.3,12.2-29.1,2.7-41.5h0ZM337.7,152c0,0-.1,0-.2,0-.5,0-1,.2-1.5.2,0,0,0,0,0,0h0s-.6,0-.6,0h-22.3v-23.7h23s0,0,0,0c6.5,0,11.8,5.3,11.8,11.8s-4.3,10.8-10,11.6Z"/>
        <path class="cls-1" d="M188.7,119.7v-10.7h-22.2c-.3,0-.5,0-.8,0h0c-8.1,0-16.2,3-22.3,9.2-11.3,11.3-12.2,29.1-2.7,41.5h0c1.7,2.1,3.6,4.1,5.8,5.8h0c.6.5,1.2.9,1.9,1.3,0,0,.1,0,.2.1.6.4,1.2.8,1.9,1.1.2.1.4.3.7.4.5.3,1,.5,1.5.7.4.2.7.4,1.1.5.4.2.8.3,1.2.4.5.2,1.1.4,1.6.6.2,0,.5.1.7.2.7.2,1.4.4,2.1.5,0,0,.1,0,.2,0,.7.1,1.5.3,2.2.4h0c1.3.1,2.7.2,4,.2h0s6,0,6,0c14.6-1.1,16.9-10.6,16.9-10.6v10.6h19.2v-63h-.9c-15.7.6-18.2,10.7-18.2,10.7ZM188.7,152.2h0c0,0-22.3,0-22.3,0h-.6s0,0,0,0c-1,0-1.9-.1-2.8-.4-.6-.1-1.1-.3-1.7-.5-.1,0-.2-.1-.3-.2-.3-.2-.7-.3-1-.5-.2,0-.3-.2-.5-.3-.3-.2-.6-.4-.9-.7,0,0-.2-.1-.3-.2-.4-.3-.7-.6-1-.9-.1-.1-.3-.3-.4-.4-.2-.3-.4-.5-.6-.8-.1-.2-.3-.4-.4-.6-.2-.3-.4-.6-.5-.9-.1-.2-.2-.4-.3-.6-.1-.3-.2-.5-.3-.8,0-.3-.2-.5-.2-.8-.1-.4-.2-.7-.3-1.1,0-.2,0-.4,0-.6,0-.5-.1-.9-.1-1.4,0,0,0,0,0,0s0,0,0,0,0,0,0,0c0-6.5,5.3-11.8,11.8-11.8s0,0,0,0h0s23,0,23,0v23.5Z"/>
        <path class="cls-1" d="M455.5,109h-21.6c-8.3-.2-16.7,2.8-23.1,9.2-11.3,11.3-12.2,29.1-2.7,41.5h0c1.7,2.1,3.6,4.1,5.8,5.8h0c.6.5,1.2.9,1.9,1.3,0,0,.1,0,.2.1.6.4,1.2.8,1.9,1.1.2.1.4.3.7.4.5.3,1,.5,1.5.7.4.2.7.4,1.1.5.4.2.8.3,1.2.4.5.2,1.1.4,1.6.6.2,0,.5.1.7.2.7.2,1.4.4,2.1.5,0,0,.1,0,.2,0,.7.1,1.5.3,2.2.4h0c1.3.1,2.7.2,4,.2h0s8.5,0,8.5,0h19.3v-19.7h-27.8s0,0,0,0c-1,0-1.9-.1-2.8-.4-.6-.1-1.1-.3-1.7-.5-.1,0-.2-.1-.3-.2-.3-.2-.7-.3-1-.5-.2,0-.3-.2-.5-.3-.3-.2-.6-.4-.9-.7,0,0-.2-.1-.3-.2-.4-.3-.7-.6-1-.9-.1-.1-.3-.3-.4-.4-.2-.3-.4-.5-.6-.8-.1-.2-.3-.4-.4-.6-.2-.3-.4-.6-.5-.9-.1-.2-.2-.4-.3-.6-.1-.3-.2-.5-.3-.8,0-.3-.2-.5-.2-.8-.1-.4-.2-.7-.3-1.1,0-.2,0-.4,0-.6,0-.5-.1-.9-.1-1.4,0,0,0,0,0,0s0,0,0,0,0,0,0,0c0-6.5,5.3-11.8,11.8-11.8s0,0,0,0h0s27.8,0,27.8,0h0v-19.7h-5.4Z"/>
      </g>
    </g>
  </g>
</svg>