<svg width="55" height="13" viewBox="0 0 55 13" fill="none" xmlns="http://www.w3.org/2000/svg">
<path d="M39.623 10.4453H43.3654V0.00403675H39.623V10.4453Z" fill="black"/>
<path d="M24.5499 2.05001C24.2741 1.68964 23.9528 1.36613 23.5934 1.08808L23.598 1.08405C23.4955 1.00691 23.3936 0.937835 23.2917 0.869331C23.2825 0.863575 23.2744 0.857244 23.2652 0.850912C23.1633 0.784711 23.0614 0.724843 22.9554 0.666126C22.9191 0.645978 22.8846 0.624677 22.8471 0.605105C22.7636 0.560779 22.6778 0.521636 22.592 0.482491C22.5304 0.453708 22.4694 0.424348 22.406 0.397868C22.3427 0.371387 22.2759 0.349513 22.212 0.325335C22.1233 0.292523 22.0364 0.257986 21.9465 0.232081C21.9056 0.219993 21.8648 0.210779 21.8244 0.19869C21.7099 0.166453 21.5947 0.135943 21.4766 0.110614L21.4427 0.104861C21.3212 0.0806832 21.1997 0.0542032 21.0753 0.0403874V0.0461408C20.8536 0.0173579 20.6296 0.00296826 20.4056 0.00296826H19.7733C17.1118 0.0881656 16.696 1.77254 16.696 1.77254V0.00296826H13.416V12.7578H16.6954V8.67007C16.6954 8.67007 17.1233 10.4212 19.9213 10.4454H20.2783C23.161 10.5237 25.5611 8.25041 25.6394 5.36867C25.6716 4.16843 25.2893 2.99351 24.5562 2.04252L24.5499 2.05001ZM20.8052 7.13709C20.7943 7.13709 20.7827 7.13709 20.7718 7.14112C20.6877 7.15666 20.6025 7.16703 20.5173 7.17221H20.5069V7.17969H16.6954V3.25543H20.5052C21.5832 3.25371 22.4584 4.12583 22.4602 5.20346C22.4619 6.16826 21.7576 6.98915 20.8035 7.13537" fill="black"/>
<path d="M37.5186 2.05001C37.2422 1.68907 36.9203 1.36613 36.561 1.08808L36.5656 1.08405C36.4637 1.00691 36.3618 0.937835 36.2593 0.869331C36.2501 0.863575 36.242 0.857244 36.2328 0.850912C36.1309 0.784711 36.029 0.724843 35.923 0.666126C35.8867 0.645978 35.8522 0.624677 35.8147 0.605105C35.7312 0.560779 35.6454 0.521636 35.5596 0.482491C35.498 0.453708 35.437 0.424348 35.3742 0.397868C35.3115 0.371387 35.2458 0.349513 35.1813 0.325335C35.0932 0.292523 35.0063 0.260289 34.9164 0.232081C34.8761 0.219993 34.8352 0.210779 34.7943 0.19869C34.6786 0.166453 34.5657 0.135943 34.4454 0.110614L34.4126 0.104861C34.2911 0.0806832 34.169 0.0542032 34.0452 0.0403874V0.0461408C33.8229 0.0173579 33.5983 0.00296826 33.3743 0.00296826H32.742C30.0805 0.0881656 29.6648 1.77254 29.6648 1.77254V0.00296826H26.3848V12.7578H29.6642V8.67007C29.6642 8.67007 30.092 10.4212 32.89 10.4454H33.2471C36.1303 10.5225 38.5292 8.24869 38.6058 5.36637C38.6381 4.16727 38.2557 2.99293 37.5233 2.04252L37.5186 2.05001ZM33.774 7.13709C33.7636 7.13709 33.7515 7.13709 33.7406 7.14112C33.6565 7.15666 33.5713 7.16703 33.486 7.17221H33.4757V7.17969H29.6642V3.25543H33.4739C34.5519 3.25371 35.4272 4.12583 35.4289 5.20346C35.4307 6.16826 34.7264 6.98915 33.7722 7.13537" fill="black"/>
<path d="M9.04823 1.769V0.00230742H5.364H5.23847C2.35581 -0.00863007 0.0104063 2.31933 4.11444e-05 5.20107C-0.00456558 6.35987 0.377794 7.48758 1.0855 8.40576L1.09241 8.39885C1.36881 8.75979 1.69071 9.08331 2.05004 9.36077L2.046 9.3648C2.14793 9.44194 2.24985 9.5116 2.35178 9.57952C2.36099 9.58528 2.36905 9.59219 2.37826 9.59794C2.48019 9.66415 2.58211 9.72401 2.68864 9.78273C2.72492 9.80288 2.76005 9.82418 2.79632 9.84375C2.8804 9.88808 2.96562 9.92722 3.05142 9.96636C3.11304 9.99515 3.17465 10.0245 3.23742 10.051C3.29961 10.078 3.36583 10.0999 3.43033 10.1235C3.51785 10.1563 3.60538 10.1891 3.69579 10.2168C3.7361 10.2294 3.77641 10.2381 3.81729 10.2502C3.93188 10.283 4.04705 10.3135 4.16452 10.3382L4.19907 10.3446C4.32058 10.3688 4.44208 10.3952 4.56588 10.409V10.4033C4.78816 10.4315 5.01216 10.4453 5.23616 10.4453H6.2387C8.66299 10.2611 9.04708 8.68668 9.04708 8.68668V10.4453H12.2263V0.00230742H12.0691C9.4588 0.108804 9.04823 1.769 9.04823 1.769ZM9.04823 7.16234V7.17673H5.23847C5.07953 7.17615 4.92175 7.15658 4.76743 7.11801C4.67357 7.09614 4.58143 7.06735 4.4916 7.03166C4.47375 7.02476 4.4582 7.01382 4.44093 7.00576C4.38392 6.98043 4.32806 6.95222 4.27451 6.92114C4.2486 6.90675 4.22326 6.8912 4.1985 6.87508C4.14437 6.84112 4.09139 6.80428 4.04072 6.76456C4.02632 6.75362 4.01135 6.74383 3.99695 6.73175C3.93822 6.68281 3.88294 6.63043 3.82996 6.57517C3.80865 6.55272 3.7885 6.53027 3.76777 6.50666C3.73149 6.46522 3.69752 6.42204 3.66585 6.37714C3.64224 6.34433 3.61863 6.31094 3.59617 6.27525C3.5645 6.22402 3.53571 6.17681 3.50864 6.125C3.49137 6.09104 3.47467 6.05765 3.45739 6.02254C3.43724 5.97764 3.41939 5.93216 3.40211 5.88553C3.38541 5.83948 3.37332 5.80206 3.36123 5.75946C3.34395 5.69902 3.32955 5.63685 3.31804 5.57467C3.31285 5.54416 3.30825 5.51366 3.30422 5.48257C3.29327 5.40428 3.28694 5.32541 3.28637 5.24713V5.23158V5.22295C3.28579 4.14474 4.15992 3.27089 5.23847 3.27032L5.23904 3.25132H9.04938L9.04823 7.16234Z" fill="black"/>
<path d="M53.3242 0.001731H49.7424C46.8598 -0.0765584 44.4591 2.19614 44.3808 5.07788C44.3485 6.2787 44.7309 7.45362 45.4639 8.40518L45.4709 8.39885C45.7473 8.75921 46.0692 9.08273 46.4285 9.36077L46.4244 9.3648C46.5264 9.44194 46.6283 9.51102 46.7302 9.57952C46.7394 9.58528 46.7475 9.59219 46.7567 9.59794C46.8586 9.66415 46.9611 9.72344 47.0671 9.78215C47.1034 9.80288 47.1385 9.82475 47.1748 9.84317C47.2588 9.88808 47.3441 9.92722 47.4299 9.96636C47.4915 9.99515 47.5531 10.0251 47.6159 10.051C47.6786 10.0769 47.7443 10.1022 47.8088 10.1235C47.8969 10.1558 47.9838 10.1886 48.0742 10.2168C48.1145 10.2289 48.1554 10.2387 48.1957 10.2496C48.3109 10.2824 48.4261 10.3129 48.5435 10.3382L48.5781 10.344C48.6996 10.3687 48.8211 10.3952 48.9449 10.409V10.4033C49.1672 10.4315 49.3912 10.4453 49.6152 10.4453H54.2259V7.17903H49.6169C49.3612 7.175 49.1084 7.12607 48.87 7.03396C48.8522 7.02648 48.8361 7.01612 48.8194 7.00749C48.7624 6.98216 48.7071 6.95625 48.653 6.92344C48.627 6.90847 48.6017 6.8935 48.5769 6.87681C48.5228 6.84285 48.4698 6.806 48.4192 6.76628C48.4053 6.75535 48.3898 6.74556 48.3754 6.73347C48.3167 6.68454 48.2614 6.63273 48.209 6.57689C48.1871 6.55502 48.1669 6.53199 48.1468 6.50897C48.1099 6.46752 48.0754 6.42434 48.0443 6.37944C48.0207 6.34663 47.9971 6.31324 47.9746 6.27755C47.9435 6.22632 47.9141 6.17854 47.8871 6.12443C47.8698 6.09161 47.8537 6.05707 47.8358 6.02253C47.8157 5.97706 47.7978 5.93158 47.7811 5.88495C47.7639 5.83775 47.7518 5.80148 47.7397 5.75888C47.7224 5.69786 47.708 5.63627 47.6971 5.5741C47.6913 5.54359 47.6867 5.5125 47.6827 5.48142C47.6717 5.4037 47.6654 5.32541 47.6648 5.24712V5.231V5.22237C47.6642 4.14416 48.5384 3.26974 49.6169 3.26974H49.6175H54.2282V0.001731H53.3242Z" fill="black"/>
</svg>
